<svg xmlns="http://www.w3.org/2000/svg" width="323.919" height="330.863" viewBox="0 0 323.919 330.863">
  <g  opacity="0.2">
    <rect width="5.892" height="4.649" transform="translate(158.723 88.488)" fill="#482080"/>
    <rect  width="5.892" height="4.649" transform="translate(158.723 81.065)" fill="#482080"/>
    <rect  width="5.892" height="4.649" transform="translate(158.723 73.641)" fill="#482080"/>
    <rect  width="5.892" height="4.65" transform="translate(158.723 66.217)" fill="#482080"/>
    <rect  width="5.892" height="4.649" transform="translate(158.723 58.794)" fill="#482080"/>
    <rect  width="5.892" height="4.649" transform="translate(158.723 51.371)" fill="#482080"/>
    <rect  width="5.892" height="4.649" transform="translate(158.723 43.947)" fill="#482080"/>
    <rect  width="5.892" height="4.65" transform="translate(158.723 36.524)" fill="#482080"/>
    <rect  width="5.892" height="4.65" transform="translate(158.723 29.1)" fill="#482080"/>
    <rect  width="5.892" height="4.648" transform="translate(158.723 21.678)" fill="#482080"/>
    <path  d="M314.5,224.612l5.859-.628-.477-4.624-5.859.628Z" transform="translate(-163.124 -130.766)" fill="#482080"/>
    <path  d="M313.113,211.167l5.859-.629-.477-4.623-5.857.628Z" transform="translate(-162.501 -124.704)" fill="#482080"/>
    <path  d="M311.727,197.723l5.859-.629-.476-4.624-5.859.629Z" transform="translate(-161.876 -118.642)" fill="#482080"/>
    <path  d="M310.345,184.277l5.859-.629-.477-4.625-5.857.629Z" transform="translate(-161.253 -112.579)" fill="#482080"/>
    <path  d="M308.962,170.833l5.859-.629-.475-4.625-5.859.629Z" transform="translate(-160.629 -106.518)" fill="#482080"/>
    <path  d="M307.578,157.388l5.859-.628-.477-4.624-5.859.628Z" transform="translate(-160.005 -100.456)" fill="#482080"/>
    <path  d="M306.194,143.944l5.859-.628-.477-4.623-5.859.628Z" transform="translate(-159.38 -94.394)" fill="#482080"/>
    <path  d="M310.669,129.87l-.475-4.624-5.86.629.476,4.624Z" transform="translate(-158.757 -88.332)" fill="#482080"/>
    <path  d="M306.689,225.626l-.946-4.549-5.762,1.252.945,4.548Z" transform="translate(-156.794 -131.54)" fill="#482080"/>
    <path  d="M297.227,209.1l.947,4.548,5.762-1.25-.947-4.548Z" transform="translate(-155.552 -125.578)" fill="#482080"/>
    <path  d="M294.476,195.882l.946,4.549,5.764-1.252-.947-4.546Z" transform="translate(-154.312 -119.617)" fill="#482080"/>
    <path  d="M292.671,187.207l5.762-1.252-.946-4.547-5.763,1.251Z" transform="translate(-153.071 -113.654)" fill="#482080"/>
    <path  d="M289.921,173.984l5.762-1.251-.946-4.548-5.763,1.251Z" transform="translate(-151.831 -107.692)" fill="#482080"/>
    <path  d="M287.166,160.76l5.763-1.251-.946-4.548-5.763,1.252Z" transform="translate(-150.59 -101.73)" fill="#482080"/>
    <path  d="M284.414,147.536l5.762-1.25-.945-4.548-5.763,1.25Z" transform="translate(-149.348 -95.768)" fill="#482080"/>
    <path  d="M281.663,134.313l5.763-1.252-.946-4.547-5.764,1.251Z" transform="translate(-148.108 -89.805)" fill="#482080"/>
    <path  d="M278.912,121.089l5.763-1.251-.947-4.548-5.762,1.252Z" transform="translate(-146.867 -83.843)" fill="#482080"/>
    <path  d="M276.16,107.866l5.762-1.251-.946-4.548-5.763,1.252Z" transform="translate(-145.626 -77.881)" fill="#482080"/>
    <path  d="M273.409,94.643l5.762-1.25-.947-4.548L272.461,90.1Z" transform="translate(-144.386 -71.919)" fill="#482080"/>
    <path  d="M270.658,81.42l5.763-1.25-.947-4.548-5.762,1.25Z" transform="translate(-143.146 -65.957)" fill="#482080"/>
    <path  d="M273.668,66.944l-.947-4.548-5.764,1.251L267.9,68.2Z" transform="translate(-141.904 -59.994)" fill="#482080"/>
    <path  d="M293.318,228.727,291.91,224.3l-5.6,1.86,1.408,4.422Z" transform="translate(-150.629 -132.996)" fill="#482080"/>
    <path  d="M282.217,213.308l1.408,4.422,5.6-1.859-1.407-4.422Z" transform="translate(-148.784 -127.199)" fill="#482080"/>
    <path  d="M278.128,200.45l1.408,4.423,5.6-1.86-1.407-4.422Z" transform="translate(-146.941 -121.402)" fill="#482080"/>
    <path  d="M274.04,187.594l1.405,4.422,5.6-1.859-1.406-4.422Z" transform="translate(-145.097 -115.605)" fill="#482080"/>
    <path  d="M269.948,174.736l1.408,4.422,5.6-1.859-1.405-4.423Z" transform="translate(-143.252 -109.808)" fill="#482080"/>
    <path  d="M265.859,161.879l1.407,4.422,5.6-1.859-1.407-4.423Z" transform="translate(-141.409 -104.01)" fill="#482080"/>
    <path  d="M261.769,149.022l1.406,4.421,5.6-1.858-1.408-4.422Z" transform="translate(-139.565 -98.213)" fill="#482080"/>
    <path  d="M257.68,136.165l1.407,4.421,5.6-1.859-1.408-4.422Z" transform="translate(-137.721 -92.416)" fill="#482080"/>
    <path  d="M255,127.729l5.6-1.859-1.405-4.423-5.6,1.86Z" transform="translate(-135.876 -86.619)" fill="#482080"/>
    <path  d="M250.906,114.872l5.6-1.859L255.1,108.59l-5.6,1.86Z" transform="translate(-134.033 -80.822)" fill="#482080"/>
    <path  d="M246.816,102.014l5.6-1.859-1.406-4.423-5.6,1.861Z" transform="translate(-132.189 -75.025)" fill="#482080"/>
    <path  d="M242.727,89.158l5.6-1.859-1.407-4.422-5.6,1.859Z" transform="translate(-130.345 -69.228)" fill="#482080"/>
    <path  d="M244.24,74.441l-1.407-4.421-5.6,1.859,1.407,4.422Z" transform="translate(-128.5 -63.431)" fill="#482080"/>
    <path  d="M273.154,231.453l1.852,4.248,5.383-2.447-1.852-4.248Z" transform="translate(-144.698 -135.116)" fill="#482080"/>
    <path  d="M267.774,219.1l1.851,4.247,5.382-2.448-1.851-4.247Z" transform="translate(-142.272 -129.547)" fill="#482080"/>
    <path  d="M262.388,206.753,264.242,211l5.381-2.448-1.851-4.247Z" transform="translate(-139.844 -123.978)" fill="#482080"/>
    <path  d="M257.007,194.4l1.851,4.248,5.382-2.448-1.851-4.247Z" transform="translate(-137.417 -118.41)" fill="#482080"/>
    <path  d="M251.622,182.052l1.852,4.248,5.382-2.448L257,179.6Z" transform="translate(-134.99 -112.841)" fill="#482080"/>
    <path  d="M246.239,169.7l1.852,4.247,5.381-2.448-1.85-4.247Z" transform="translate(-132.563 -107.273)" fill="#482080"/>
    <path  d="M240.856,157.353l1.852,4.247,5.382-2.447-1.852-4.248Z" transform="translate(-130.136 -101.705)" fill="#482080"/>
    <path  d="M235.473,145l1.853,4.247,5.38-2.447-1.852-4.248Z" transform="translate(-127.708 -96.136)" fill="#482080"/>
    <path  d="M230.09,132.652l1.852,4.248,5.382-2.448-1.851-4.248Z" transform="translate(-125.281 -90.568)" fill="#482080"/>
    <path  d="M226.559,124.55l5.381-2.448-1.851-4.247-5.382,2.448Z" transform="translate(-122.854 -85)" fill="#482080"/>
    <path  d="M226.558,109.753l-1.852-4.249-5.382,2.448,1.851,4.248Z" transform="translate(-120.427 -79.43)" fill="#482080"/>
    <path  d="M268.044,239.155l-2.276-4.028-5.1,3.01,2.276,4.027Z" transform="translate(-139.067 -137.875)" fill="#482080"/>
    <path  d="M261.426,227.446l-2.275-4.027-5.1,3.009,2.275,4.028Z" transform="translate(-136.084 -132.596)" fill="#482080"/>
    <path  d="M247.431,214.722l2.277,4.027,5.1-3.01-2.277-4.026Z" transform="translate(-133.1 -127.318)" fill="#482080"/>
    <path  d="M240.812,203.014l2.277,4.027,5.1-3.01-2.276-4.026Z" transform="translate(-130.116 -122.039)" fill="#482080"/>
    <path  d="M234.2,191.306l2.277,4.027,5.1-3.01L239.3,188.3Z" transform="translate(-127.133 -116.761)" fill="#482080"/>
    <path  d="M227.579,179.6l2.277,4.027,5.1-3.009-2.277-4.027Z" transform="translate(-124.149 -111.482)" fill="#482080"/>
    <path  d="M223.237,171.917l5.1-3.01-2.277-4.026-5.1,3.009Z" transform="translate(-121.165 -106.203)" fill="#482080"/>
    <path  d="M221.721,157.2l-2.275-4.026-5.1,3.009,2.277,4.026Z" transform="translate(-118.182 -100.925)" fill="#482080"/>
    <path  d="M253.742,242.6l-4.767,3.537,2.676,3.762,4.766-3.537Z" transform="translate(-133.796 -141.247)" fill="#482080"/>
    <path  d="M243.872,238.967l4.765-3.538-2.675-3.76L241.2,235.2Z" transform="translate(-130.289 -136.316)" fill="#482080"/>
    <path  d="M233.415,224.268l2.677,3.762,4.766-3.537-2.675-3.761Z" transform="translate(-126.78 -131.384)" fill="#482080"/>
    <path  d="M225.638,213.331l2.675,3.761,4.765-3.537L230.4,209.8Z" transform="translate(-123.274 -126.454)" fill="#482080"/>
    <path  d="M217.858,202.393l2.676,3.761,4.765-3.537-2.675-3.762Z" transform="translate(-119.766 -121.521)" fill="#482080"/>
    <path  d="M210.078,191.456l2.676,3.763,4.765-3.537-2.675-3.762Z" transform="translate(-116.258 -116.59)" fill="#482080"/>
    <path  d="M204.976,184.28l4.765-3.537-2.676-3.762-4.764,3.537Z" transform="translate(-112.752 -111.659)" fill="#482080"/>
    <path  d="M197.195,173.345l4.765-3.538-2.676-3.76-4.766,3.537Z" transform="translate(-109.242 -106.728)" fill="#482080"/>
    <path  d="M194.182,158.869l-2.675-3.762-4.766,3.537,2.675,3.762Z" transform="translate(-105.736 -101.796)" fill="#482080"/>
    <path  d="M242.591,251.353l-4.377,4.027,3.045,3.455,4.379-4.027Z" transform="translate(-128.944 -145.191)" fill="#482080"/>
    <path  d="M233.735,241.309l-4.378,4.026,3.046,3.455,4.377-4.027Z" transform="translate(-124.951 -140.662)" fill="#482080"/>
    <path  d="M223.546,238.742l4.378-4.027-3.044-3.454-4.38,4.026Z" transform="translate(-120.957 -136.132)" fill="#482080"/>
    <path  d="M214.692,228.7l4.378-4.027-3.045-3.454-4.378,4.025Z" transform="translate(-116.965 -131.603)" fill="#482080"/>
    <path  d="M205.835,218.65l4.378-4.027-3.047-3.455-4.378,4.026Z" transform="translate(-112.972 -127.072)" fill="#482080"/>
    <path  d="M193.933,205.148l3.046,3.455,4.378-4.028-3.045-3.455Z" transform="translate(-108.979 -122.542)" fill="#482080"/>
    <path  d="M185.079,195.1l3.045,3.455,4.378-4.027-3.047-3.455Z" transform="translate(-104.986 -118.013)" fill="#482080"/>
    <path  d="M179.267,188.51l4.378-4.028-3.047-3.454-4.378,4.026Z" transform="translate(-100.992 -113.483)" fill="#482080"/>
    <path  d="M170.41,178.463l4.378-4.026-3.045-3.455-4.378,4.026Z" transform="translate(-97 -108.953)" fill="#482080"/>
    <path  d="M165.932,164.39l-3.046-3.456-4.378,4.027,3.046,3.455Z" transform="translate(-93.006 -104.423)" fill="#482080"/>
    <path  d="M232.438,261.279l-3.943,4.472,3.383,3.111,3.943-4.471Z" transform="translate(-124.562 -149.667)" fill="#482080"/>
    <path  d="M218.661,256.705l3.382,3.11,3.942-4.471-3.382-3.111Z" transform="translate(-120.128 -145.588)" fill="#482080"/>
    <path  d="M208.824,247.658l3.383,3.113,3.942-4.473-3.384-3.11Z" transform="translate(-115.693 -141.51)" fill="#482080"/>
    <path  d="M198.99,238.613l3.383,3.112,3.941-4.473-3.383-3.11Z" transform="translate(-111.259 -137.431)" fill="#482080"/>
    <path  d="M189.154,229.566l3.383,3.111,3.941-4.471-3.381-3.112Z" transform="translate(-106.824 -133.351)" fill="#482080"/>
    <path  d="M182.7,223.632l3.941-4.471-3.383-3.111-3.943,4.472Z" transform="translate(-102.388 -129.274)" fill="#482080"/>
    <path  d="M169.483,211.476l3.382,3.111,3.942-4.472L173.425,207Z" transform="translate(-97.955 -125.195)" fill="#482080"/>
    <path  d="M159.646,202.43l3.384,3.11,3.941-4.472-3.384-3.111Z" transform="translate(-93.519 -121.116)" fill="#482080"/>
    <path  d="M153.194,196.495l3.941-4.472-3.382-3.11-3.942,4.471Z" transform="translate(-89.085 -117.038)" fill="#482080"/>
    <path  d="M143.358,187.449l3.942-4.472-3.382-3.111-3.942,4.471Z" transform="translate(-84.65 -112.959)" fill="#482080"/>
    <path  d="M137.464,173.931l-3.383-3.112-3.943,4.472,3.384,3.111Z" transform="translate(-80.215 -108.88)" fill="#482080"/>
    <path  d="M227.076,275.005l-3.683-2.733-3.462,4.868,3.681,2.733Z" transform="translate(-120.701 -154.624)" fill="#482080"/>
    <path  d="M209.221,269.195l3.684,2.733,3.462-4.868-3.682-2.733Z" transform="translate(-115.872 -151.041)" fill="#482080"/>
    <path  d="M198.515,261.248l3.684,2.733,3.462-4.869-3.683-2.732Z" transform="translate(-111.045 -147.458)" fill="#482080"/>
    <path  d="M187.808,253.3l3.681,2.733,3.466-4.868-3.684-2.734Z" transform="translate(-106.217 -143.874)" fill="#482080"/>
    <path  d="M177.1,245.356l3.684,2.732,3.462-4.868-3.682-2.734Z" transform="translate(-101.389 -140.291)" fill="#482080"/>
    <path  d="M166.393,237.41l3.683,2.733,3.462-4.868-3.681-2.734Z" transform="translate(-96.561 -136.709)" fill="#482080"/>
    <path  d="M159.369,232.2l3.463-4.868-3.683-2.733-3.462,4.868Z" transform="translate(-91.734 -133.127)" fill="#482080"/>
    <path  d="M144.979,221.518l3.682,2.732,3.462-4.868-3.683-2.733Z" transform="translate(-86.906 -129.544)" fill="#482080"/>
    <path  d="M212.612,289.425l3.942,2.325,2.945-5.212-3.942-2.325Z" transform="translate(-117.401 -160.007)" fill="#482080"/>
    <path  d="M201.148,282.666l3.942,2.325,2.947-5.211-3.942-2.325Z" transform="translate(-112.232 -156.96)" fill="#482080"/>
    <path  d="M189.689,275.905l3.942,2.325,2.945-5.211-3.942-2.325Z" transform="translate(-107.065 -153.912)" fill="#482080"/>
    <path  d="M178.227,269.146l3.941,2.325,2.947-5.212-3.942-2.325Z" transform="translate(-101.897 -150.864)" fill="#482080"/>
    <path  d="M166.763,262.385l3.942,2.325,2.944-5.211-3.941-2.326Z" transform="translate(-96.728 -147.815)" fill="#482080"/>
    <path  d="M155.3,255.628l3.942,2.325,2.945-5.211-3.942-2.325Z" transform="translate(-91.561 -144.769)" fill="#482080"/>
    <path  d="M147.781,251.193l2.945-5.211-3.942-2.324-2.945,5.211Z" transform="translate(-86.392 -141.722)" fill="#482080"/>
    <path  d="M206.619,302.469l4.156,1.891,2.4-5.5-4.159-1.892Z" transform="translate(-114.699 -165.759)" fill="#482080"/>
    <path  d="M194.524,296.969l4.16,1.891,2.4-5.5-4.158-1.891Z" transform="translate(-109.245 -163.28)" fill="#482080"/>
    <path  d="M182.434,291.471l4.16,1.891,2.4-5.5-4.159-1.89Z" transform="translate(-103.794 -160.801)" fill="#482080"/>
    <path  d="M172.741,280.474l-2.4,5.5,4.158,1.89,2.4-5.5Z" transform="translate(-98.344 -158.321)" fill="#482080"/>
    <path  d="M158.256,280.473l4.158,1.89,2.395-5.5-4.158-1.892Z" transform="translate(-92.892 -155.841)" fill="#482080"/>
    <path  d="M146.163,274.974l4.159,1.891,2.395-5.5-4.158-1.891Z" transform="translate(-87.44 -153.363)" fill="#482080"/>
    <path  d="M134.072,269.477l4.159,1.89,2.4-5.5-4.158-1.892Z" transform="translate(-81.988 -150.884)" fill="#482080"/>
    <path  d="M202.016,316.129l4.328,1.437,1.822-5.723-4.329-1.437Z" transform="translate(-112.623 -171.817)" fill="#482080"/>
    <path  d="M189.427,311.951l4.331,1.437,1.819-5.722-4.329-1.437Z" transform="translate(-106.947 -169.934)" fill="#482080"/>
    <path  d="M182.991,303.487l-4.33-1.437-1.821,5.722,4.33,1.437Z" transform="translate(-101.272 -168.05)" fill="#482080"/>
    <path  d="M170.4,299.31l-4.329-1.436-1.82,5.722,4.329,1.437Z" transform="translate(-95.597 -166.166)" fill="#482080"/>
    <path  d="M157.816,295.13l-4.328-1.437-1.82,5.723L156,300.854Z" transform="translate(-89.922 -164.282)" fill="#482080"/>
    <path  d="M145.227,290.954l-4.328-1.436-1.82,5.722,4.331,1.437Z" transform="translate(-84.245 -162.399)" fill="#482080"/>
    <path  d="M132.641,286.776l-4.329-1.436-1.82,5.723,4.329,1.435Z" transform="translate(-78.57 -160.515)" fill="#482080"/>
    <path  d="M120.054,282.6l-4.329-1.436-1.821,5.723,4.33,1.436Z" transform="translate(-72.895 -158.631)" fill="#482080"/>
    <path  d="M107.466,278.422l-4.329-1.437-1.821,5.723,4.331,1.436Z" transform="translate(-67.219 -156.748)" fill="#482080"/>
    <path  d="M94.878,274.244l-4.329-1.438-1.822,5.724,4.33,1.436Z" transform="translate(-61.543 -154.864)" fill="#482080"/>
    <path  d="M82.292,270.065l-4.33-1.436-1.82,5.724,4.329,1.436Z" transform="translate(-55.869 -152.981)" fill="#482080"/>
    <path  d="M204.534,325.336l-4.453-.967-1.224,5.886,4.452.967Z" transform="translate(-111.199 -178.113)" fill="#482080"/>
    <path  d="M185.91,327.445l4.453.966,1.224-5.886-4.451-.967Z" transform="translate(-105.361 -176.845)" fill="#482080"/>
    <path  d="M172.963,324.634l4.454.966,1.223-5.885-4.452-.967Z" transform="translate(-99.524 -175.578)" fill="#482080"/>
    <path  d="M160.018,321.823l4.452.967L165.7,316.9l-4.453-.966Z" transform="translate(-93.687 -174.311)" fill="#482080"/>
    <path  d="M147.074,319.012l4.452.967,1.224-5.885-4.452-.968Z" transform="translate(-87.851 -173.043)" fill="#482080"/>
    <path  d="M134.126,316.2l4.453.968,1.223-5.886-4.451-.967Z" transform="translate(-82.013 -171.776)" fill="#482080"/>
    <path  d="M121.181,313.391l4.453.967,1.225-5.887-4.453-.966Z" transform="translate(-76.176 -170.509)" fill="#482080"/>
    <path  d="M108.234,310.581l4.453.966,1.224-5.886-4.453-.966Z" transform="translate(-70.339 -169.242)" fill="#482080"/>
    <path  d="M95.289,307.77l4.452.967,1.225-5.886-4.453-.966Z" transform="translate(-64.502 -167.975)" fill="#482080"/>
    <path  d="M88.02,300.04l-4.453-.968-1.224,5.886,4.452.968Z" transform="translate(-58.665 -166.707)" fill="#482080"/>
    <path  d="M75.074,297.229l-4.452-.967L69.4,302.149l4.453.965Z" transform="translate(-52.827 -165.44)" fill="#482080"/>
    <path  d="M62.129,294.418l-4.452-.968-1.226,5.887,4.453.967Z" transform="translate(-46.99 -164.172)" fill="#482080"/>
    <path  d="M49.182,291.607l-4.453-.965-1.224,5.885,4.452.966Z" transform="translate(-41.153 -162.906)" fill="#482080"/>
    <path  d="M197.171,344.7l4.528.485.617-5.984-4.528-.486Z" transform="translate(-110.439 -184.579)" fill="#482080"/>
    <path  d="M184.01,343.281l4.528.486.615-5.985-4.526-.485Z" transform="translate(-104.504 -183.942)" fill="#482080"/>
    <path  d="M170.845,341.868l4.528.486.616-5.985-4.528-.486Z" transform="translate(-98.569 -183.304)" fill="#482080"/>
    <path  d="M157.684,340.455l4.528.486.615-5.985-4.526-.485Z" transform="translate(-92.634 -182.668)" fill="#482080"/>
    <path  d="M144.524,339.041l4.526.486.616-5.984-4.527-.487Z" transform="translate(-86.701 -182.03)" fill="#482080"/>
    <path  d="M131.359,337.629l4.528.487.614-5.985-4.525-.486Z" transform="translate(-80.765 -181.393)" fill="#482080"/>
    <path  d="M118.2,336.216l4.527.486.615-5.984-4.527-.486Z" transform="translate(-74.831 -180.756)" fill="#482080"/>
    <path  d="M105.034,334.8l4.528.485.615-5.984-4.527-.486Z" transform="translate(-68.896 -180.119)" fill="#482080"/>
    <path  d="M91.872,333.389l4.528.485.615-5.983-4.528-.486Z" transform="translate(-62.961 -179.482)" fill="#482080"/>
    <path  d="M79.325,325.993l-.615,5.984,4.527.486.616-5.984Z" transform="translate(-57.027 -178.845)" fill="#482080"/>
    <path  d="M66.163,324.58l-.616,5.985,4.526.484.617-5.983Z" transform="translate(-51.092 -178.208)" fill="#482080"/>
    <path  d="M52.382,329.15l4.528.486.617-5.984L53,323.166Z" transform="translate(-45.156 -177.57)" fill="#482080"/>
    <path  d="M39.222,327.738l4.526.485.617-5.984-4.528-.485Z" transform="translate(-39.222 -176.934)" fill="#482080"/>
    <rect  width="4.552" height="6.018" transform="translate(86.631 162.126)" fill="#482080"/>
    <rect  width="4.551" height="6.018" transform="translate(79.363 162.126)" fill="#482080"/>
    <rect width="4.552" height="6.017" transform="translate(72.095 162.126)" fill="#482080"/>
    <rect  width="4.553" height="6.017" transform="translate(64.827 162.126)" fill="#482080"/>
    <rect  width="4.552" height="6.017" transform="translate(57.56 162.126)" fill="#482080"/>
    <rect  width="4.552" height="6.017" transform="translate(50.292 162.126)" fill="#482080"/>
    <rect  width="4.551" height="6.017" transform="translate(43.025 162.126)" fill="#482080"/>
    <rect  width="4.553" height="6.017" transform="translate(35.756 162.126)" fill="#482080"/>
    <path  d="M202.316,372.991l-.617-5.984-4.528.485.617,5.985Z" transform="translate(-110.439 -197.337)" fill="#482080"/>
    <path  d="M189.152,374.4l-.615-5.985-4.528.486.617,5.984Z" transform="translate(-104.504 -197.975)" fill="#482080"/>
    <path  d="M175.992,375.815l-.616-5.984-4.526.486.614,5.984Z" transform="translate(-98.571 -198.611)" fill="#482080"/>
    <path  d="M162.829,377.229l-.615-5.985-4.526.487.614,5.984Z" transform="translate(-92.636 -199.248)" fill="#482080"/>
    <path  d="M204.533,386.537l-1.225-5.885-4.454.966,1.226,5.886Z" transform="translate(-111.197 -203.49)" fill="#482080"/>
    <path  d="M191.587,389.348l-1.224-5.885-4.452.966,1.224,5.887Z" transform="translate(-105.362 -204.757)" fill="#482080"/>
    <path  d="M178.641,392.157l-1.223-5.886-4.453.967,1.223,5.886Z" transform="translate(-99.524 -206.023)" fill="#482080"/>
    <path  d="M165.7,394.968l-1.224-5.886-4.452.967,1.224,5.887Z" transform="translate(-93.688 -207.291)" fill="#482080"/>
    <path  d="M147.074,392.86l1.224,5.886,4.453-.966-1.225-5.885Z" transform="translate(-87.851 -208.559)" fill="#482080"/>
    <path  d="M134.127,395.67l1.225,5.886,4.452-.967-1.225-5.886Z" transform="translate(-82.013 -209.826)" fill="#482080"/>
    <path  d="M126.858,403.4l-1.225-5.885-4.453.966,1.225,5.887Z" transform="translate(-76.176 -211.093)" fill="#482080"/>
    <path  d="M113.912,406.21l-1.226-5.886-4.452.968,1.225,5.886Z" transform="translate(-70.339 -212.36)" fill="#482080"/>
    <path  d="M208.166,399.778l-1.82-5.723-4.329,1.437,1.821,5.723Z" transform="translate(-112.623 -209.533)" fill="#482080"/>
    <path  d="M195.579,403.956l-1.819-5.722-4.328,1.436,1.819,5.724Z" transform="translate(-106.949 -211.417)" fill="#482080"/>
    <path  d="M182.993,408.134l-1.821-5.723-4.328,1.436,1.817,5.723Z" transform="translate(-101.274 -213.3)" fill="#482080"/>
    <path  d="M170.4,412.311l-1.821-5.724-4.329,1.438,1.82,5.722Z" transform="translate(-95.597 -215.184)" fill="#482080"/>
    <path  d="M155.994,410.767l-4.328,1.435,1.821,5.724,4.329-1.436Z" transform="translate(-89.921 -217.068)" fill="#482080"/>
    <path  d="M143.408,414.944l-4.328,1.436L140.9,422.1l4.33-1.437Z" transform="translate(-84.246 -218.952)" fill="#482080"/>
    <path  d="M132.642,424.843l-1.821-5.722-4.329,1.436,1.821,5.724Z" transform="translate(-78.57 -220.835)" fill="#482080"/>
    <path  d="M118.232,423.3l-4.329,1.437,1.821,5.723,4.329-1.438Z" transform="translate(-72.895 -222.718)" fill="#482080"/>
    <path  d="M105.646,427.475l-4.331,1.438,1.821,5.722,4.328-1.436Z" transform="translate(-67.219 -224.601)" fill="#482080"/>
    <path  d="M94.879,437.376l-1.821-5.723-4.331,1.437,1.822,5.724Z" transform="translate(-61.543 -226.485)" fill="#482080"/>
    <path  d="M76.144,437.268l1.82,5.723,4.329-1.438-1.82-5.723Z" transform="translate(-55.869 -228.369)" fill="#482080"/>
    <path  d="M63.554,441.444l1.82,5.724,4.329-1.437-1.819-5.723Z" transform="translate(-50.193 -230.253)" fill="#482080"/>
    <path  d="M55.3,444.185l-4.331,1.437,1.821,5.723,4.33-1.438Z" transform="translate(-44.517 -232.136)" fill="#482080"/>
    <path  d="M213.172,412.572l-2.4-5.5-4.16,1.89,2.4,5.5Z" transform="translate(-114.697 -215.403)" fill="#482080"/>
    <path  d="M201.082,418.07l-2.4-5.5-4.157,1.89,2.395,5.5Z" transform="translate(-109.247 -217.882)" fill="#482080"/>
    <path  d="M188.991,423.568l-2.4-5.5-4.158,1.891,2.395,5.5Z" transform="translate(-103.795 -220.361)" fill="#482080"/>
    <path  d="M176.9,429.066l-2.4-5.5-4.159,1.891,2.4,5.5Z" transform="translate(-98.344 -222.841)" fill="#482080"/>
    <path  d="M164.81,434.564l-2.4-5.5-4.159,1.89,2.4,5.5Z" transform="translate(-92.892 -225.32)" fill="#482080"/>
    <path  d="M152.719,440.064l-2.4-5.5-4.158,1.891,2.395,5.5Z" transform="translate(-87.441 -227.799)" fill="#482080"/>
    <path  d="M140.627,445.561l-2.4-5.5-4.158,1.891,2.4,5.5Z" transform="translate(-81.989 -230.278)" fill="#482080"/>
    <path  d="M128.536,451.06l-2.4-5.5-4.157,1.892,2.4,5.5Z" transform="translate(-76.537 -232.757)" fill="#482080"/>
    <path  d="M116.444,456.559l-2.395-5.5-4.159,1.892,2.4,5.5Z" transform="translate(-71.086 -235.236)" fill="#482080"/>
    <path  d="M104.355,462.059l-2.4-5.5-4.16,1.891,2.4,5.5Z" transform="translate(-65.633 -237.716)" fill="#482080"/>
    <path  d="M92.263,467.557l-2.4-5.5-4.158,1.892,2.4,5.5Z" transform="translate(-60.182 -240.195)" fill="#482080"/>
    <path  d="M73.617,469.449l2.4,5.5,4.158-1.892-2.395-5.5Z" transform="translate(-54.73 -242.675)" fill="#482080"/>
    <path  d="M61.526,474.947l2.4,5.5,4.159-1.892-2.4-5.5Z" transform="translate(-49.279 -245.152)" fill="#482080"/>
    <path  d="M219.5,424.774l-2.944-5.211-3.943,2.325,2.946,5.211Z" transform="translate(-117.401 -221.034)" fill="#482080"/>
    <path  d="M208.038,431.533l-2.947-5.211-3.94,2.324,2.945,5.213Z" transform="translate(-112.233 -224.082)" fill="#482080"/>
    <path  d="M196.575,438.291l-2.945-5.211-3.942,2.325,2.944,5.212Z" transform="translate(-107.065 -227.128)" fill="#482080"/>
    <path  d="M185.114,445.051l-2.945-5.212-3.942,2.326,2.945,5.211Z" transform="translate(-101.897 -230.176)" fill="#482080"/>
    <path  d="M173.652,451.81,170.7,446.6l-3.942,2.322,2.945,5.211Z" transform="translate(-96.728 -233.225)" fill="#482080"/>
    <path  d="M162.191,458.57l-2.948-5.21-3.941,2.324,2.945,5.212Z" transform="translate(-91.561 -236.273)" fill="#482080"/>
    <path  d="M150.728,465.33l-2.947-5.211-3.941,2.324,2.947,5.212Z" transform="translate(-86.392 -239.32)" fill="#482080"/>
    <path  d="M139.265,472.088l-2.945-5.21-3.941,2.325,2.945,5.211Z" transform="translate(-81.225 -242.368)" fill="#482080"/>
    <path  d="M120.916,475.963l2.945,5.211,3.942-2.325-2.944-5.211Z" transform="translate(-76.057 -245.416)" fill="#482080"/>
    <path  d="M109.453,482.722l2.946,5.212,3.944-2.326L113.4,480.4Z" transform="translate(-70.888 -248.463)" fill="#482080"/>
    <path  d="M97.992,489.481l2.946,5.211,3.942-2.325-2.946-5.211Z" transform="translate(-65.72 -251.511)" fill="#482080"/>
    <path  d="M86.53,496.239l2.945,5.213,3.942-2.325-2.945-5.212Z" transform="translate(-60.552 -254.558)" fill="#482080"/>
    <path  d="M227.076,436.253l-3.462-4.869-3.682,2.734,3.463,4.868Z" transform="translate(-120.701 -226.364)" fill="#482080"/>
    <path  d="M216.369,444.2l-3.462-4.868-3.681,2.732,3.462,4.871Z" transform="translate(-115.874 -229.947)" fill="#482080"/>
    <path  d="M205.663,452.143l-3.462-4.869-3.681,2.733,3.46,4.869Z" transform="translate(-111.046 -233.529)" fill="#482080"/>
    <path  d="M194.954,460.09l-3.462-4.867-3.684,2.734,3.462,4.868Z" transform="translate(-106.217 -237.112)" fill="#482080"/>
    <path  d="M184.245,468.037l-3.463-4.867L177.1,465.9l3.464,4.869Z" transform="translate(-101.389 -240.696)" fill="#482080"/>
    <path  d="M173.54,475.983l-3.464-4.868-3.681,2.734,3.462,4.868Z" transform="translate(-96.562 -244.278)" fill="#482080"/>
    <path  d="M155.687,481.793l3.462,4.869,3.683-2.733-3.463-4.868Z" transform="translate(-91.734 -247.861)" fill="#482080"/>
    <path  d="M144.979,489.741l3.462,4.869,3.683-2.734-3.462-4.867Z" transform="translate(-86.906 -251.444)" fill="#482080"/>
    <path  d="M134.27,497.687l3.463,4.868,3.683-2.734-3.462-4.867Z" transform="translate(-82.078 -255.027)" fill="#482080"/>
    <path  d="M235.821,446.883l-3.942-4.471-3.384,3.112,3.945,4.471Z" transform="translate(-124.562 -231.336)" fill="#482080"/>
    <path  d="M225.985,455.93l-3.942-4.471-3.382,3.109,3.942,4.473Z" transform="translate(-120.128 -235.415)" fill="#482080"/>
    <path  d="M216.15,464.974l-3.942-4.472-3.383,3.11,3.941,4.474Z" transform="translate(-115.693 -239.493)" fill="#482080"/>
    <path  d="M206.314,474.02l-3.941-4.472-3.383,3.112,3.941,4.472Z" transform="translate(-111.259 -243.571)" fill="#482080"/>
    <path  d="M196.479,483.066l-3.943-4.472-3.383,3.11,3.943,4.473Z" transform="translate(-106.823 -247.65)" fill="#482080"/>
    <path  d="M186.643,492.112,182.7,487.64l-3.383,3.111,3.941,4.472Z" transform="translate(-102.389 -251.729)" fill="#482080"/>
    <path  d="M176.807,501.157l-3.942-4.471-3.381,3.111,3.942,4.471Z" transform="translate(-97.955 -255.808)" fill="#482080"/>
    <path  d="M245.639,456.547l-4.378-4.028-3.046,3.456L242.592,460Z" transform="translate(-128.944 -235.894)" fill="#482080"/>
    <path  d="M236.781,466.593l-4.378-4.026-3.046,3.454,4.378,4.028Z" transform="translate(-124.951 -240.424)" fill="#482080"/>
    <path  d="M227.925,476.639l-4.378-4.026-3.045,3.454,4.376,4.028Z" transform="translate(-120.958 -244.954)" fill="#482080"/>
    <path  d="M219.07,486.686l-4.378-4.028-3.045,3.456,4.376,4.028Z" transform="translate(-116.965 -249.483)" fill="#482080"/>
    <path  d="M210.213,496.734l-4.378-4.025-3.047,3.453,4.378,4.028Z" transform="translate(-112.971 -254.014)" fill="#482080"/>
    <path  d="M201.357,506.78l-4.379-4.025-3.045,3.454,4.378,4.027Z" transform="translate(-108.979 -258.544)" fill="#482080"/>
    <path  d="M192.5,516.826l-4.378-4.025-3.045,3.454,4.377,4.028Z" transform="translate(-104.986 -263.073)" fill="#482080"/>
    <path  d="M176.22,526.3l4.378,4.026,3.045-3.456-4.378-4.025Z" transform="translate(-100.992 -267.603)" fill="#482080"/>
    <path  d="M256.417,465.14l-4.765-3.537-2.677,3.762,4.768,3.536Z" transform="translate(-133.796 -239.99)" fill="#482080"/>
    <path  d="M248.64,476.078l-4.767-3.537L241.2,476.3l4.765,3.539Z" transform="translate(-130.29 -244.921)" fill="#482080"/>
    <path  d="M240.86,487.014l-4.766-3.537-2.674,3.761,4.764,3.538Z" transform="translate(-126.782 -249.852)" fill="#482080"/>
    <path  d="M233.079,497.951l-4.765-3.539-2.675,3.763,4.765,3.537Z" transform="translate(-123.275 -254.782)" fill="#482080"/>
    <path  d="M225.3,508.888l-4.766-3.535-2.676,3.76,4.767,3.537Z" transform="translate(-119.766 -259.715)" fill="#482080"/>
    <path  d="M217.52,519.825l-4.766-3.537-2.676,3.762,4.767,3.537Z" transform="translate(-116.258 -264.646)" fill="#482080"/>
    <path  d="M209.743,530.761l-4.767-3.536-2.675,3.761,4.766,3.538Z" transform="translate(-112.752 -269.577)" fill="#482080"/>
    <path  d="M201.96,541.7l-4.766-3.536-2.676,3.762,4.768,3.537Z" transform="translate(-109.242 -274.509)" fill="#482080"/>
    <path  d="M194.182,552.637l-4.765-3.537-2.675,3.761,4.765,3.537Z" transform="translate(-105.737 -279.44)" fill="#482080"/>
    <path  d="M186.4,563.573l-4.766-3.538-2.676,3.763,4.767,3.537Z" transform="translate(-102.228 -284.37)" fill="#482080"/>
    <path  d="M173.857,570.973l-2.673,3.762,4.765,3.538,2.675-3.762Z" transform="translate(-98.722 -289.302)" fill="#482080"/>
    <path  d="M268.044,472.568l-5.1-3.009-2.277,4.027,5.1,3.008Z" transform="translate(-139.067 -243.576)" fill="#482080"/>
    <path  d="M261.428,484.276l-5.1-3.009-2.275,4.026,5.1,3.01Z" transform="translate(-136.084 -248.855)" fill="#482080"/>
    <path  d="M254.811,495.983l-5.1-3.01L247.435,497l5.1,3.011Z" transform="translate(-133.102 -254.133)" fill="#482080"/>
    <path  d="M248.192,507.69l-5.1-3.01-2.274,4.027,5.1,3.01Z" transform="translate(-130.116 -259.412)" fill="#482080"/>
    <path  d="M241.575,519.4l-5.1-3.007-2.276,4.026,5.1,3.008Z" transform="translate(-127.132 -264.692)" fill="#482080"/>
    <path  d="M234.957,531.105l-5.1-3.007-2.276,4.026,5.1,3.01Z" transform="translate(-124.149 -269.971)" fill="#482080"/>
    <path  d="M228.339,542.813l-5.1-3.007-2.276,4.026,5.1,3.01Z" transform="translate(-121.165 -275.25)" fill="#482080"/>
    <path  d="M221.72,554.52l-5.1-3.008-2.275,4.028,5.1,3.009Z" transform="translate(-118.182 -280.528)" fill="#482080"/>
    <path  d="M215.1,566.229l-5.1-3.008-2.277,4.027,5.1,3.009Z" transform="translate(-115.197 -285.807)" fill="#482080"/>
    <path  d="M203.384,574.926l-2.278,4.027,5.1,3.01,2.278-4.029Z" transform="translate(-112.213 -291.085)" fill="#482080"/>
    <path  d="M194.492,590.662l5.1,3.011,2.274-4.028-5.1-3.009Z" transform="translate(-109.231 -296.364)" fill="#482080"/>
    <path  d="M187.873,602.369l5.1,3.01,2.277-4.027-5.1-3.009Z" transform="translate(-106.246 -301.643)" fill="#482080"/>
    <path  d="M181.255,614.077l5.1,3.008,2.274-4.028-5.1-3.01Z" transform="translate(-103.263 -306.921)" fill="#482080"/>
    <path  d="M280.391,478.748l-5.384-2.448-1.852,4.248,5.383,2.446Z" transform="translate(-144.699 -246.616)" fill="#482080"/>
    <path  d="M275.007,491.1l-5.382-2.447-1.851,4.246,5.381,2.449Z" transform="translate(-142.272 -252.185)" fill="#482080"/>
    <path  d="M269.624,503.448,264.24,501l-1.849,4.247,5.38,2.449Z" transform="translate(-139.845 -257.753)" fill="#482080"/>
    <path  d="M264.24,515.8l-5.382-2.449-1.851,4.247,5.382,2.448Z" transform="translate(-137.417 -263.321)" fill="#482080"/>
    <path  d="M258.856,528.148l-5.382-2.446-1.853,4.246L257,532.4Z" transform="translate(-134.989 -268.89)" fill="#482080"/>
    <path  d="M253.474,540.5l-5.384-2.446-1.852,4.246,5.382,2.448Z" transform="translate(-132.563 -274.459)" fill="#482080"/>
    <path  d="M248.091,552.848l-5.382-2.447-1.852,4.246,5.384,2.448Z" transform="translate(-130.136 -280.027)" fill="#482080"/>
    <path  d="M235.473,567l5.383,2.448,1.85-4.249-5.382-2.447Z" transform="translate(-127.708 -285.595)" fill="#482080"/>
    <path  d="M230.091,579.35l5.382,2.447,1.851-4.248-5.382-2.447Z" transform="translate(-125.282 -291.164)" fill="#482080"/>
    <path  d="M224.707,591.7l5.382,2.448,1.853-4.248-5.382-2.448Z" transform="translate(-122.854 -296.731)" fill="#482080"/>
    <path  d="M219.324,604.049l5.383,2.449,1.851-4.249-5.383-2.448Z" transform="translate(-120.427 -302.301)" fill="#482080"/>
    <path  d="M213.941,616.4l5.381,2.448,1.852-4.248-5.38-2.448Z" transform="translate(-118 -307.868)" fill="#482080"/>
    <path  d="M293.318,483.614l-5.6-1.86-1.408,4.423,5.6,1.858Z" transform="translate(-150.629 -249.075)" fill="#482080"/>
    <path  d="M289.23,496.472l-5.6-1.859-1.405,4.42,5.6,1.861Z" transform="translate(-148.786 -254.873)" fill="#482080"/>
    <path  d="M285.138,509.327l-5.6-1.859-1.406,4.421,5.6,1.862Z" transform="translate(-146.941 -260.669)" fill="#482080"/>
    <path  d="M281.049,522.186l-5.6-1.862-1.405,4.423,5.6,1.86Z" transform="translate(-145.097 -266.466)" fill="#482080"/>
    <path  d="M271.355,533.185l-1.408,4.421,5.6,1.859,1.405-4.422Z" transform="translate(-143.252 -272.264)" fill="#482080"/>
    <path  d="M265.859,550.463l5.6,1.859,1.408-4.424-5.6-1.858Z" transform="translate(-141.409 -278.061)" fill="#482080"/>
    <path  d="M261.769,563.319l5.6,1.861,1.405-4.424-5.6-1.858Z" transform="translate(-139.565 -283.858)" fill="#482080"/>
    <path  d="M257.68,576.177l5.6,1.859,1.407-4.423-5.6-1.859Z" transform="translate(-137.721 -289.655)" fill="#482080"/>
    <path  d="M253.592,589.034l5.6,1.859,1.405-4.422-5.6-1.859Z" transform="translate(-135.878 -295.452)" fill="#482080"/>
    <path  d="M249.5,601.89l5.6,1.86,1.407-4.423-5.6-1.861Z" transform="translate(-134.033 -301.248)" fill="#482080"/>
    <path  d="M306.69,487.11l-5.763-1.251-.946,4.549,5.763,1.25Z" transform="translate(-156.794 -250.926)" fill="#482080"/>
    <path  d="M303.936,500.336l-5.762-1.251-.947,4.547,5.763,1.253Z" transform="translate(-155.552 -256.889)" fill="#482080"/>
    <path  d="M301.186,513.557l-5.763-1.251-.945,4.547,5.762,1.253Z" transform="translate(-154.312 -262.85)" fill="#482080"/>
    <path  d="M298.433,526.781l-5.763-1.253-.945,4.548,5.763,1.253Z" transform="translate(-153.071 -268.812)" fill="#482080"/>
    <path  d="M288.969,543.3l5.765,1.251.946-4.548-5.762-1.25Z" transform="translate(-151.829 -274.776)" fill="#482080"/>
    <path  d="M286.221,556.524l5.762,1.253.947-4.55-5.763-1.25Z" transform="translate(-150.59 -280.737)" fill="#482080"/>
    <path  d="M283.468,569.748,289.233,571l.943-4.549-5.762-1.25Z" transform="translate(-149.348 -286.7)" fill="#482080"/>
    <path  d="M280.717,582.974l5.764,1.25.944-4.547-5.762-1.251Z" transform="translate(-148.108 -292.663)" fill="#482080"/>
    <path  d="M314.02,493.2l5.859.628.477-4.623-5.86-.629Z" transform="translate(-163.124 -252.15)" fill="#482080"/>
    <path  d="M312.638,506.643l5.859.63.476-4.624-5.859-.628Z" transform="translate(-162.501 -258.213)" fill="#482080"/>
    <path  d="M311.254,520.086l5.857.631.476-4.626-5.859-.629Z" transform="translate(-161.877 -264.274)" fill="#482080"/>
    <path  d="M309.871,533.531l5.857.63.476-4.624-5.859-.631Z" transform="translate(-161.253 -270.335)" fill="#482080"/>
    <path  d="M308.482,546.978l5.862.628.475-4.624-5.858-.627Z" transform="translate(-160.627 -276.399)" fill="#482080"/>
    <path  d="M307.1,560.421l5.859.63.477-4.625-5.859-.628Z" transform="translate(-160.005 -282.46)" fill="#482080"/>
    <path  d="M305.718,573.866l5.86.63.475-4.626-5.859-.628Z" transform="translate(-159.38 -288.522)" fill="#482080"/>
    <path  d="M304.334,587.312l5.86.628.475-4.625-5.859-.627Z" transform="translate(-158.757 -294.584)" fill="#482080"/>
    <path  d="M302.954,600.756l5.859.628.474-4.623-5.858-.631Z" transform="translate(-158.134 -300.645)" fill="#482080"/>
    <path  d="M301.567,614.2l5.86.629.477-4.625-5.86-.631Z" transform="translate(-157.509 -306.707)" fill="#482080"/>
    <rect  width="5.892" height="4.65" transform="translate(158.724 237.132)" fill="#482080"/>
    <rect  width="5.892" height="4.649" transform="translate(158.723 244.557)" fill="#482080"/>
    <rect  width="5.892" height="4.651" transform="translate(158.722 251.979)" fill="#482080"/>
    <rect  width="5.892" height="4.649" transform="translate(158.722 259.403)" fill="#482080"/>
    <rect  width="5.892" height="4.648" transform="translate(158.723 266.827)" fill="#482080"/>
    <rect  width="5.892" height="4.65" transform="translate(158.723 274.249)" fill="#482080"/>
    <rect  width="5.892" height="4.649" transform="translate(158.723 281.674)" fill="#482080"/>
    <rect  width="5.892" height="4.649" transform="translate(158.723 289.097)" fill="#482080"/>
    <rect  width="5.891" height="4.651" transform="translate(158.724 296.52)" fill="#482080"/>
    <rect  width="5.892" height="4.651" transform="translate(158.723 303.943)" fill="#482080"/>
    <rect  width="5.892" height="4.649" transform="translate(158.724 311.367)" fill="#482080"/>
    <rect  width="5.892" height="4.65" transform="translate(158.723 318.79)" fill="#482080"/>
    <rect  width="5.892" height="4.651" transform="translate(158.723 326.213)" fill="#482080"/>
    <path  d="M347.582,488.574l-5.859.628.474,4.625,5.86-.631Z" transform="translate(-175.615 -252.15)" fill="#482080"/>
    <path  d="M348.964,502.017l-5.859.631.474,4.622,5.86-.627Z" transform="translate(-176.238 -258.211)" fill="#482080"/>
    <path  d="M350.346,515.462l-5.859.629.477,4.623,5.859-.626Z" transform="translate(-176.861 -264.274)" fill="#482080"/>
    <path  d="M351.729,528.909l-5.859.627.477,4.623,5.859-.627Z" transform="translate(-177.484 -270.336)" fill="#482080"/>
    <path  d="M353.115,542.351l-5.859.632.474,4.622,5.86-.631Z" transform="translate(-178.109 -276.397)" fill="#482080"/>
    <path  d="M348.64,556.426l.475,4.624,5.859-.628-.474-4.626Z" transform="translate(-178.733 -282.459)" fill="#482080"/>
    <path  d="M361.79,490.407l-.945-4.546-5.763,1.25.946,4.549Z" transform="translate(-181.638 -250.927)" fill="#482080"/>
    <path  d="M364.542,503.632l-.946-4.548-5.764,1.252.946,4.547Z" transform="translate(-182.878 -256.889)" fill="#482080"/>
    <path  d="M366.344,512.306l-5.764,1.252.948,4.546,5.763-1.249Z" transform="translate(-184.117 -262.85)" fill="#482080"/>
    <path  d="M369.1,525.53l-5.764,1.251.948,4.547,5.762-1.249Z" transform="translate(-185.358 -268.813)" fill="#482080"/>
    <path  d="M371.849,538.751,366.088,540l.943,4.547L372.8,543.3Z" transform="translate(-186.6 -274.774)" fill="#482080"/>
    <path  d="M374.6,551.976l-5.763,1.253.947,4.546,5.763-1.251Z" transform="translate(-187.84 -280.737)" fill="#482080"/>
    <path  d="M377.352,565.2l-5.763,1.253.947,4.547,5.763-1.251Z" transform="translate(-189.081 -286.699)" fill="#482080"/>
    <path  d="M380.1,578.426l-5.762,1.252.946,4.546,5.763-1.25Z" transform="translate(-190.322 -292.663)" fill="#482080"/>
    <path  d="M382.857,591.648l-5.762,1.25.947,4.55,5.76-1.252Z" transform="translate(-191.563 -298.624)" fill="#482080"/>
    <path  d="M379.845,606.12l.946,4.551,5.764-1.253-.947-4.549Z" transform="translate(-192.803 -304.586)" fill="#482080"/>
    <path  d="M375.214,486.176l-1.405-4.422-5.6,1.859,1.407,4.424Z" transform="translate(-187.555 -249.075)" fill="#482080"/>
    <path  d="M379.3,499.033,377.9,494.61l-5.6,1.861,1.406,4.42Z" transform="translate(-189.399 -254.872)" fill="#482080"/>
    <path  d="M383.392,511.891l-1.408-4.423-5.6,1.859,1.407,4.42Z" transform="translate(-191.242 -260.669)" fill="#482080"/>
    <path  d="M387.482,524.749l-1.407-4.422-5.6,1.858,1.407,4.422Z" transform="translate(-193.085 -266.467)" fill="#482080"/>
    <path  d="M391.572,537.6l-1.405-4.422-5.6,1.861,1.4,4.422Z" transform="translate(-194.931 -272.263)" fill="#482080"/>
    <path  d="M395.663,550.462l-1.408-4.423-5.6,1.861,1.407,4.422Z" transform="translate(-196.774 -278.06)" fill="#482080"/>
    <path  d="M398.345,558.9l-5.6,1.861,1.407,4.42,5.6-1.859Z" transform="translate(-198.619 -283.857)" fill="#482080"/>
    <path  d="M402.436,571.755l-5.6,1.86,1.407,4.421,5.6-1.859Z" transform="translate(-200.463 -289.655)" fill="#482080"/>
    <path  d="M406.525,584.613l-5.6,1.858,1.407,4.423,5.6-1.86Z" transform="translate(-202.307 -295.452)" fill="#482080"/>
    <path  d="M410.616,597.468l-5.6,1.858,1.407,4.424,5.6-1.86Z" transform="translate(-204.151 -301.248)" fill="#482080"/>
    <path  d="M414.706,610.327l-5.6,1.859,1.408,4.42,5.6-1.858Z" transform="translate(-205.994 -307.046)" fill="#482080"/>
    <path  d="M418.8,623.183l-5.6,1.858,1.405,4.424,5.6-1.859Z" transform="translate(-207.839 -312.843)" fill="#482080"/>
    <path  d="M417.281,637.9l1.408,4.423,5.6-1.86-1.408-4.421Z" transform="translate(-209.683 -318.64)" fill="#482080"/>
    <path  d="M388.182,480.547l-1.851-4.246-5.382,2.447L382.8,483Z" transform="translate(-193.301 -246.616)" fill="#482080"/>
    <path  d="M393.567,492.9l-1.852-4.248-5.382,2.449,1.851,4.245Z" transform="translate(-195.728 -252.185)" fill="#482080"/>
    <path  d="M398.948,505.249,397.1,501l-5.384,2.449,1.852,4.245Z" transform="translate(-198.154 -257.753)" fill="#482080"/>
    <path  d="M402.478,513.352,397.1,515.8l1.852,4.245,5.382-2.445Z" transform="translate(-200.581 -263.322)" fill="#482080"/>
    <path  d="M409.715,529.947l-1.851-4.248-5.381,2.449,1.85,4.248Z" transform="translate(-203.01 -268.889)" fill="#482080"/>
    <path  d="M415.1,542.3l-1.852-4.249-5.383,2.449,1.853,4.247Z" transform="translate(-205.436 -274.458)" fill="#482080"/>
    <path  d="M420.482,554.648,418.63,550.4l-5.382,2.448,1.851,4.246Z" transform="translate(-207.864 -280.026)" fill="#482080"/>
    <path  d="M425.864,567l-1.851-4.248-5.382,2.448,1.852,4.248Z" transform="translate(-210.291 -285.595)" fill="#482080"/>
    <path  d="M431.246,579.349,429.4,575.1l-5.382,2.446,1.852,4.249Z" transform="translate(-212.718 -291.164)" fill="#482080"/>
    <path  d="M434.78,587.451,429.4,589.9l1.851,4.249,5.383-2.448Z" transform="translate(-215.146 -296.732)" fill="#482080"/>
    <path  d="M440.162,599.8l-5.382,2.448,1.852,4.246,5.383-2.446Z" transform="translate(-217.572 -302.301)" fill="#482080"/>
    <path  d="M445.546,612.153l-5.383,2.445,1.851,4.248L447.4,616.4Z" transform="translate(-219.999 -307.87)" fill="#482080"/>
    <path  d="M445.546,626.948,447.4,631.2l5.382-2.448-1.852-4.247Z" transform="translate(-222.427 -313.438)" fill="#482080"/>
    <path  d="M400.555,473.585l-2.276-4.026-5.1,3.008,2.274,4.028Z" transform="translate(-198.815 -243.576)" fill="#482080"/>
    <path  d="M404.9,481.265l-5.1,3.011,2.275,4.024,5.1-3.009Z" transform="translate(-201.797 -248.855)" fill="#482080"/>
    <path  d="M413.787,497l-2.276-4.028-5.1,3.009,2.276,4.024Z" transform="translate(-204.78 -254.134)" fill="#482080"/>
    <path  d="M420.405,508.71l-2.276-4.028-5.1,3.009,2.277,4.026Z" transform="translate(-207.764 -259.413)" fill="#482080"/>
    <path  d="M427.022,520.415l-2.275-4.027-5.1,3.01,2.274,4.026Z" transform="translate(-210.748 -264.691)" fill="#482080"/>
    <path  d="M433.641,532.123l-2.276-4.027-5.1,3.01,2.275,4.024Z" transform="translate(-213.732 -269.97)" fill="#482080"/>
    <path  d="M437.983,539.8l-5.1,3.01,2.276,4.025,5.1-3.007Z" transform="translate(-216.716 -275.248)" fill="#482080"/>
    <path  d="M446.877,555.54l-2.277-4.028-5.1,3.011,2.277,4.026Z" transform="translate(-219.7 -280.528)" fill="#482080"/>
    <path  d="M453.494,567.248l-2.276-4.027-5.1,3.008,2.277,4.028Z" transform="translate(-222.684 -285.807)" fill="#482080"/>
    <path  d="M460.112,578.954l-2.276-4.027-5.1,3.009,2.276,4.029Z" transform="translate(-225.667 -291.085)" fill="#482080"/>
    <path  d="M459.349,589.644l2.278,4.026,5.1-3.007-2.276-4.026Z" transform="translate(-228.65 -296.365)" fill="#482080"/>
    <path  d="M412.192,465.364l-2.675-3.76-4.766,3.536,2.675,3.763Z" transform="translate(-204.033 -239.99)" fill="#482080"/>
    <path  d="M419.972,476.3l-2.675-3.762-4.766,3.539,2.675,3.759Z" transform="translate(-207.54 -244.92)" fill="#482080"/>
    <path  d="M427.749,487.241l-2.677-3.763-4.768,3.537,2.676,3.76Z" transform="translate(-211.046 -249.852)" fill="#482080"/>
    <path  d="M435.529,498.177l-2.676-3.762-4.767,3.537,2.675,3.76Z" transform="translate(-214.554 -254.784)" fill="#482080"/>
    <path  d="M443.308,509.112l-2.675-3.761-4.766,3.537,2.674,3.763Z" transform="translate(-218.063 -259.715)" fill="#482080"/>
    <path  d="M451.089,520.049l-2.677-3.763-4.765,3.539,2.676,3.76Z" transform="translate(-221.57 -264.645)" fill="#482080"/>
    <path  d="M458.869,530.987l-2.678-3.762-4.764,3.538,2.675,3.759Z" transform="translate(-225.078 -269.577)" fill="#482080"/>
    <path  d="M463.972,538.164l-4.764,3.537,2.675,3.76,4.767-3.537Z" transform="translate(-228.586 -274.509)" fill="#482080"/>
    <path  d="M466.983,552.637l2.677,3.762,4.766-3.537L471.75,549.1Z" transform="translate(-232.092 -279.44)" fill="#482080"/>
    <path  d="M415.545,456.546,418.592,460l4.377-4.028-3.045-3.454Z" transform="translate(-208.9 -235.894)" fill="#482080"/>
    <path  d="M431.827,466.022l-3.047-3.456-4.377,4.028,3.043,3.454Z" transform="translate(-212.894 -240.423)" fill="#482080"/>
    <path  d="M437.633,472.613l-4.378,4.028,3.047,3.454,4.38-4.024Z" transform="translate(-216.884 -244.954)" fill="#482080"/>
    <path  d="M449.536,486.117l-3.046-3.456-4.38,4.027,3.047,3.454Z" transform="translate(-220.877 -249.484)" fill="#482080"/>
    <path  d="M458.392,496.159l-3.044-3.455-4.378,4.029,3.044,3.455Z" transform="translate(-224.872 -254.012)" fill="#482080"/>
    <path  d="M467.25,506.208l-3.047-3.456-4.378,4.028,3.047,3.455Z" transform="translate(-228.865 -258.542)" fill="#482080"/>
    <path  d="M476.105,516.254l-3.046-3.455-4.378,4.027,3.045,3.454Z" transform="translate(-232.858 -263.073)" fill="#482080"/>
    <path  d="M481.916,522.848l-4.378,4.027,3.046,3.454,4.378-4.026Z" transform="translate(-236.851 -267.604)" fill="#482080"/>
    <path  d="M490.771,532.894l-4.379,4.025,3.047,3.456,4.377-4.027Z" transform="translate(-240.843 -272.133)" fill="#482080"/>
    <path  d="M495.247,546.963l3.047,3.458,4.378-4.027-3.047-3.457Z" transform="translate(-244.836 -276.661)" fill="#482080"/>
    <path  d="M428.825,449.993l3.942-4.474-3.382-3.111-3.942,4.472Z" transform="translate(-213.362 -231.335)" fill="#482080"/>
    <path  d="M442.605,454.567l-3.382-3.113-3.942,4.474,3.381,3.11Z" transform="translate(-217.798 -235.413)" fill="#482080"/>
    <path  d="M452.439,463.615l-3.384-3.113-3.944,4.473,3.383,3.109Z" transform="translate(-222.23 -239.493)" fill="#482080"/>
    <path  d="M458.89,469.549l-3.943,4.471,3.383,3.111,3.943-4.471Z" transform="translate(-226.665 -243.572)" fill="#482080"/>
    <path  d="M468.727,478.593l-3.941,4.473,3.382,3.112,3.942-4.474Z" transform="translate(-231.101 -247.65)" fill="#482080"/>
    <path  d="M478.563,487.638l-3.94,4.475L478,495.222l3.943-4.471Z" transform="translate(-235.537 -251.728)" fill="#482080"/>
    <path  d="M491.782,499.8l-3.383-3.112-3.942,4.473,3.381,3.109Z" transform="translate(-239.971 -255.807)" fill="#482080"/>
    <path  d="M501.617,508.844l-3.383-3.11-3.941,4.472,3.383,3.111Z" transform="translate(-244.406 -259.887)" fill="#482080"/>
    <path  d="M508.07,514.778l-3.942,4.471,3.383,3.112,3.941-4.472Z" transform="translate(-248.84 -263.965)" fill="#482080"/>
    <path  d="M517.9,523.822l-3.942,4.471,3.383,3.113,3.944-4.471Z" transform="translate(-253.274 -268.043)" fill="#482080"/>
    <path  d="M527.74,532.869l-3.942,4.473,3.383,3.109,3.944-4.471Z" transform="translate(-257.709 -272.122)" fill="#482080"/>
    <path  d="M537.576,541.917l-3.942,4.47,3.383,3.112,3.944-4.471Z" transform="translate(-262.144 -276.201)" fill="#482080"/>
    <path  d="M543.469,555.433l3.383,3.112,3.942-4.473-3.383-3.109Z" transform="translate(-266.578 -280.28)" fill="#482080"/>
    <path  d="M441.48,434.114l-3.684-2.732-3.462,4.867,3.684,2.735Z" transform="translate(-217.371 -226.363)" fill="#482080"/>
    <path  d="M452.189,442.062l-3.681-2.733-3.462,4.87,3.68,2.732Z" transform="translate(-222.201 -229.946)" fill="#482080"/>
    <path  d="M462.894,450.011l-3.685-2.733-3.463,4.869,3.684,2.731Z" transform="translate(-227.025 -233.53)" fill="#482080"/>
    <path  d="M473.6,457.957l-3.682-2.733-3.464,4.868,3.682,2.732Z" transform="translate(-231.854 -237.113)" fill="#482080"/>
    <path  d="M484.308,465.9l-3.682-2.732-3.462,4.869,3.683,2.733Z" transform="translate(-236.683 -240.695)" fill="#482080"/>
    <path  d="M495.018,473.848l-3.684-2.735-3.461,4.871,3.682,2.731Z" transform="translate(-241.511 -244.277)" fill="#482080"/>
    <path  d="M502.042,479.06l-3.462,4.87,3.68,2.731,3.465-4.868Z" transform="translate(-246.339 -247.86)" fill="#482080"/>
    <path  d="M516.433,489.741l-3.684-2.733-3.462,4.869,3.684,2.733Z" transform="translate(-251.166 -251.444)" fill="#482080"/>
    <path  d="M527.14,497.687l-3.683-2.733-3.463,4.867,3.684,2.734Z" transform="translate(-255.994 -255.027)" fill="#482080"/>
    <path  d="M537.846,505.633l-3.684-2.734-3.463,4.867,3.685,2.734Z" transform="translate(-260.821 -258.609)" fill="#482080"/>
    <path  d="M442.121,424.772l3.944,2.326,2.945-5.213-3.942-2.323Z" transform="translate(-220.882 -221.033)" fill="#482080"/>
    <path  d="M460.474,428.645l-3.943-2.326-2.945,5.213,3.94,2.324Z" transform="translate(-226.052 -224.08)" fill="#482080"/>
    <path  d="M471.935,435.407l-3.945-2.325-2.945,5.211,3.941,2.324Z" transform="translate(-231.219 -227.13)" fill="#482080"/>
    <path  d="M483.4,442.166l-3.942-2.324-2.947,5.211,3.942,2.323Z" transform="translate(-236.386 -230.178)" fill="#482080"/>
    <path  d="M494.858,448.922l-3.941-2.324-2.944,5.212,3.941,2.326Z" transform="translate(-241.556 -233.224)" fill="#482080"/>
    <path  d="M506.321,455.684l-3.945-2.325-2.943,5.212,3.942,2.324Z" transform="translate(-246.723 -236.272)" fill="#482080"/>
    <path  d="M517.784,462.442l-3.944-2.325-2.944,5.211,3.942,2.324Z" transform="translate(-251.892 -239.32)" fill="#482080"/>
    <path  d="M529.244,469.2l-3.942-2.325-2.946,5.212,3.944,2.325Z" transform="translate(-257.059 -242.368)" fill="#482080"/>
    <path  d="M536.765,473.638l-2.943,5.211,3.941,2.325,2.946-5.211Z" transform="translate(-262.228 -245.416)" fill="#482080"/>
    <path  d="M552.169,482.72l-3.945-2.326-2.946,5.211,3.944,2.327Z" transform="translate(-267.394 -248.462)" fill="#482080"/>
    <path  d="M559.688,487.156l-2.945,5.211,3.942,2.323,2.946-5.211Z" transform="translate(-272.563 -251.511)" fill="#482080"/>
    <path  d="M571.148,493.918l-2.948,5.209,3.944,2.325,2.948-5.212Z" transform="translate(-277.729 -254.56)" fill="#482080"/>
    <path  d="M579.666,505.887l3.943,2.325L586.554,503l-3.942-2.324Z" transform="translate(-282.899 -257.607)" fill="#482080"/>
    <path  d="M455.278,408.963l-4.159-1.891-2.4,5.5,4.158,1.892Z" transform="translate(-223.859 -215.402)" fill="#482080"/>
    <path  d="M467.37,414.462l-4.158-1.892-2.4,5.5,4.157,1.89Z" transform="translate(-229.311 -217.881)" fill="#482080"/>
    <path  d="M479.46,419.962l-4.161-1.891-2.4,5.5,4.158,1.89Z" transform="translate(-234.761 -220.361)" fill="#482080"/>
    <path  d="M491.551,425.462l-4.16-1.891-2.4,5.5,4.159,1.89Z" transform="translate(-240.213 -222.841)" fill="#482080"/>
    <path  d="M503.641,430.958l-4.158-1.891-2.395,5.5,4.157,1.892Z" transform="translate(-245.666 -225.319)" fill="#482080"/>
    <path  d="M515.733,436.457l-4.16-1.892-2.393,5.5,4.156,1.89Z" transform="translate(-251.118 -227.798)" fill="#482080"/>
    <path  d="M525.426,447.451l2.4-5.5-4.16-1.892-2.395,5.5Z" transform="translate(-256.569 -230.277)" fill="#482080"/>
    <path  d="M460.213,395.49l-4.328-1.436-1.821,5.723,4.329,1.438Z" transform="translate(-226.267 -209.532)" fill="#482080"/>
    <path  d="M472.8,399.668l-4.328-1.438-1.821,5.724,4.328,1.437Z" transform="translate(-231.943 -211.416)" fill="#482080"/>
    <path  d="M485.387,403.848l-4.331-1.436-1.819,5.723,4.328,1.435Z" transform="translate(-237.617 -213.301)" fill="#482080"/>
    <path  d="M497.974,408.026l-4.328-1.436-1.82,5.722,4.328,1.435Z" transform="translate(-243.293 -215.185)" fill="#482080"/>
    <path  d="M510.561,412.2l-4.329-1.436-1.82,5.724,4.328,1.439Z" transform="translate(-248.968 -217.067)" fill="#482080"/>
    <path  d="M517,420.666l4.329,1.436,1.82-5.723-4.331-1.438Z" transform="translate(-254.643 -218.95)" fill="#482080"/>
    <path  d="M535.736,420.556l-4.328-1.437-1.82,5.724,4.327,1.435Z" transform="translate(-260.32 -220.834)" fill="#482080"/>
    <path  d="M548.324,424.735,544,423.3l-1.82,5.723,4.328,1.436Z" transform="translate(-265.995 -222.719)" fill="#482080"/>
    <path  d="M560.91,428.912l-4.328-1.437L554.76,433.2l4.331,1.437Z" transform="translate(-271.669 -224.601)" fill="#482080"/>
    <path  d="M573.5,433.089l-4.33-1.438-1.821,5.722,4.331,1.439Z" transform="translate(-277.344 -226.485)" fill="#482080"/>
    <path  d="M463.759,381.615l-4.452-.966-1.227,5.886,4.455.968Z" transform="translate(-228.078 -203.489)" fill="#482080"/>
    <path  d="M476.707,384.427l-4.453-.968-1.224,5.887,4.451.967Z" transform="translate(-233.917 -204.756)" fill="#482080"/>
    <path  d="M489.652,387.24l-4.455-.966-1.224,5.886,4.452.965Z" transform="translate(-239.753 -206.025)" fill="#482080"/>
    <path  d="M502.6,390.05l-4.452-.967-1.225,5.887,4.452.966Z" transform="translate(-245.59 -207.291)" fill="#482080"/>
    <path  d="M515.542,392.859l-4.452-.966-1.224,5.886,4.452.968Z" transform="translate(-251.428 -208.558)" fill="#482080"/>
    <path  d="M528.487,395.67l-4.453-.968-1.223,5.888,4.453.966Z" transform="translate(-257.264 -209.825)" fill="#482080"/>
    <path  d="M541.434,398.481l-4.453-.966-1.224,5.885,4.452.967Z" transform="translate(-263.101 -211.093)" fill="#482080"/>
    <path  d="M554.384,401.293l-4.453-.966-1.224,5.886,4.452.966Z" transform="translate(-268.94 -212.361)" fill="#482080"/>
    <path  d="M567.328,404.1l-4.452-.967-1.226,5.886,4.452.967Z" transform="translate(-274.776 -213.627)" fill="#482080"/>
    <path  d="M580.273,406.914l-4.453-.968-1.225,5.885,4.455.969Z" transform="translate(-280.612 -214.895)" fill="#482080"/>
    <path  d="M587.541,414.643l4.452.967,1.225-5.887-4.449-.965Z" transform="translate(-286.45 -216.162)" fill="#482080"/>
    <path  d="M600.483,417.455l4.454.968,1.225-5.888-4.453-.965Z" transform="translate(-292.285 -217.43)" fill="#482080"/>
    <path  d="M613.431,420.266l4.454.967,1.225-5.886-4.453-.964Z" transform="translate(-298.123 -218.698)" fill="#482080"/>
    <path  d="M465.88,367.489,461.353,367l-.617,5.985,4.528.487Z" transform="translate(-229.275 -197.336)" fill="#482080"/>
    <path  d="M479.046,368.9l-4.527-.487L473.9,374.4l4.524.485Z" transform="translate(-235.213 -197.973)" fill="#482080"/>
    <path  d="M492.207,370.319l-4.529-.486-.614,5.986,4.525.485Z" transform="translate(-241.147 -198.612)" fill="#482080"/>
    <path  d="M505.37,371.733l-4.527-.485-.617,5.984,4.526.485Z" transform="translate(-247.081 -199.249)" fill="#482080"/>
    <path  d="M518.531,373.143,514,372.658l-.616,5.984,4.528.488Z" transform="translate(-253.015 -199.885)" fill="#482080"/>
    <path  d="M531.694,374.558l-4.529-.487-.614,5.985,4.528.485Z" transform="translate(-258.951 -200.523)" fill="#482080"/>
    <path  d="M539.717,381.467l4.525.486.617-5.985-4.529-.486Z" transform="translate(-264.887 -201.159)" fill="#482080"/>
    <path  d="M558.022,377.382l-4.527-.485-.617,5.985,4.526.486Z" transform="translate(-270.821 -201.797)" fill="#482080"/>
    <path  d="M566.043,384.294l4.526.486.615-5.984-4.527-.486Z" transform="translate(-276.756 -202.434)" fill="#482080"/>
    <path  d="M584.344,380.209l-4.527-.485-.618,5.984,4.529.486Z" transform="translate(-282.688 -203.071)" fill="#482080"/>
    <path  d="M592.364,387.121l4.526.485.616-5.985-4.525-.484Z" transform="translate(-288.624 -203.709)" fill="#482080"/>
    <path  d="M610.053,389.022l.617-5.987-4.527-.483-.618,5.984Z" transform="translate(-294.558 -204.347)" fill="#482080"/>
    <rect  width="4.553" height="6.018" transform="translate(232.155 162.126)" fill="#482080"/>
    <rect  width="4.551" height="6.018" transform="translate(239.424 162.126)" fill="#482080"/>
    <rect  width="4.552" height="6.018" transform="translate(246.691 162.127)" fill="#482080"/>
    <rect  width="4.552" height="6.018" transform="translate(253.959 162.127)" fill="#482080"/>
    <rect  width="4.552" height="6.019" transform="translate(261.226 162.126)" fill="#482080"/>
    <rect  width="4.554" height="6.017" transform="translate(268.493 162.126)" fill="#482080"/>
    <rect  width="4.551" height="6.018" transform="translate(275.762 162.126)" fill="#482080"/>
    <rect  width="4.551" height="6.018" transform="translate(283.031 162.126)" fill="#482080"/>
    <rect  width="4.553" height="6.017" transform="translate(290.298 162.126)" fill="#482080"/>
    <rect  width="4.554" height="6.018" transform="translate(297.564 162.126)" fill="#482080"/>
    <rect  width="4.55" height="6.017" transform="translate(304.833 162.126)" fill="#482080"/>
    <rect  width="4.552" height="6.018" transform="translate(312.099 162.126)" fill="#482080"/>
    <rect  width="4.552" height="6.017" transform="translate(319.367 162.127)" fill="#482080"/>
    <path  d="M465.882,344.693l-.617-5.986-4.526.486.614,5.985Z" transform="translate(-229.277 -184.578)" fill="#482080"/>
    <path  d="M479.042,343.282l-.614-5.985-4.528.485.617,5.985Z" transform="translate(-235.211 -183.942)" fill="#482080"/>
    <path  d="M492.2,341.869l-.614-5.985-4.528.487.617,5.986Z" transform="translate(-241.145 -183.305)" fill="#482080"/>
    <path  d="M505.369,340.457l-.614-5.984-4.527.486.616,5.985Z" transform="translate(-247.082 -182.668)" fill="#482080"/>
    <path  d="M514,339.527l4.529-.484-.618-5.987-4.527.486Z" transform="translate(-253.015 -182.03)" fill="#482080"/>
    <path  d="M531.692,337.629l-.614-5.984-4.53.486.619,5.985Z" transform="translate(-258.949 -181.393)" fill="#482080"/>
    <path  d="M458.081,325.334l1.223,5.886,4.455-.967-1.226-5.887Z" transform="translate(-228.079 -178.112)" fill="#482080"/>
    <path  d="M471.028,322.524l1.226,5.887,4.449-.966-1.222-5.887Z" transform="translate(-233.916 -176.845)" fill="#482080"/>
    <path  d="M483.973,319.715,485.2,325.6l4.451-.968-1.222-5.887Z" transform="translate(-239.753 -175.578)" fill="#482080"/>
    <path  d="M496.923,316.9l1.224,5.887,4.452-.968-1.224-5.886Z" transform="translate(-245.591 -174.311)" fill="#482080"/>
    <path  d="M515.544,319.013l-1.227-5.888-4.45.968,1.224,5.885Z" transform="translate(-251.428 -173.043)" fill="#482080"/>
    <path  d="M455.881,317.563l4.331-1.436-1.821-5.725-4.328,1.437Z" transform="translate(-226.267 -171.816)" fill="#482080"/>
    <path  d="M470.981,306.227l-4.331,1.436,1.822,5.723,4.327-1.435Z" transform="translate(-231.942 -169.933)" fill="#482080"/>
    <path  d="M483.566,302.05l-4.33,1.438,1.821,5.724,4.328-1.438Z" transform="translate(-237.617 -168.05)" fill="#482080"/>
    <path  d="M491.826,299.31l1.82,5.723,4.328-1.438-1.82-5.722Z" transform="translate(-243.293 -166.166)" fill="#482080"/>
    <path  d="M506.232,300.854l4.329-1.435-1.822-5.724-4.328,1.437Z" transform="translate(-248.968 -164.282)" fill="#482080"/>
    <path  d="M448.723,298.86l2.395,5.5,4.16-1.89-2.4-5.5Z" transform="translate(-223.859 -165.758)" fill="#482080"/>
    <path  d="M467.367,296.97l-2.395-5.5-4.16,1.89,2.4,5.5Z" transform="translate(-229.31 -163.28)" fill="#482080"/>
    <path  d="M477.064,285.974l-4.161,1.893,2.4,5.5,4.156-1.891Z" transform="translate(-234.761 -160.801)" fill="#482080"/>
    <path  d="M485,282.367l2.4,5.5,4.156-1.892-2.4-5.5Z" transform="translate(-240.215 -158.322)" fill="#482080"/>
    <path  d="M497.086,276.868l2.4,5.5,4.16-1.889-2.4-5.5Z" transform="translate(-245.665 -155.843)" fill="#482080"/>
    <path  d="M509.178,271.37l2.4,5.5,4.158-1.892-2.4-5.5Z" transform="translate(-251.117 -153.364)" fill="#482080"/>
    <path  d="M521.268,265.87l2.4,5.5,4.155-1.89-2.395-5.5Z" transform="translate(-256.568 -150.883)" fill="#482080"/>
    <path  d="M533.363,260.372l2.395,5.5,4.159-1.891-2.4-5.5Z" transform="translate(-262.022 -148.405)" fill="#482080"/>
    <path  d="M545.451,254.873l2.4,5.5,4.16-1.891-2.4-5.5Z" transform="translate(-267.472 -145.926)" fill="#482080"/>
    <path  d="M557.54,249.373l2.395,5.5,4.161-1.891-2.4-5.5Z" transform="translate(-272.923 -143.446)" fill="#482080"/>
    <path  d="M576.186,247.481l-2.4-5.5-4.156,1.892,2.4,5.5Z" transform="translate(-278.376 -140.966)" fill="#482080"/>
    <path  d="M588.276,241.983l-2.395-5.5-4.159,1.894,2.395,5.5Z" transform="translate(-283.826 -138.486)" fill="#482080"/>
    <path  d="M600.369,236.484l-2.4-5.5-4.158,1.893,2.4,5.5Z" transform="translate(-289.278 -136.008)" fill="#482080"/>
    <path  d="M442.121,286.536l2.944,5.213,3.945-2.326-2.947-5.211Z" transform="translate(-220.882 -160.007)" fill="#482080"/>
    <path  d="M453.582,279.778l2.947,5.211,3.941-2.323-2.943-5.212Z" transform="translate(-226.05 -156.96)" fill="#482080"/>
    <path  d="M465.046,273.02l2.947,5.212,3.941-2.326-2.943-5.213Z" transform="translate(-231.219 -153.912)" fill="#482080"/>
    <path  d="M476.509,266.26l2.946,5.212,3.942-2.326-2.944-5.211Z" transform="translate(-236.387 -150.864)" fill="#482080"/>
    <path  d="M487.971,259.5l2.945,5.21,3.945-2.323-2.948-5.211Z" transform="translate(-241.555 -147.817)" fill="#482080"/>
    <path  d="M499.431,252.743l2.948,5.211,3.942-2.326-2.946-5.211Z" transform="translate(-246.722 -144.769)" fill="#482080"/>
    <path  d="M510.894,245.981l2.947,5.211,3.941-2.324-2.945-5.212Z" transform="translate(-251.891 -141.72)" fill="#482080"/>
    <path  d="M522.361,239.222l2.943,5.212,3.943-2.326L526.3,236.9Z" transform="translate(-257.061 -138.674)" fill="#482080"/>
    <path  d="M537.762,230.137l-3.941,2.325,2.943,5.211,3.943-2.325Z" transform="translate(-262.228 -135.625)" fill="#482080"/>
    <path  d="M549.221,223.377l-3.942,2.324,2.945,5.213,3.945-2.325Z" transform="translate(-267.394 -132.577)" fill="#482080"/>
    <path  d="M556.745,218.943l2.943,5.211,3.94-2.325-2.943-5.213Z" transform="translate(-272.564 -129.529)" fill="#482080"/>
    <path  d="M434.333,275l3.462,4.869,3.684-2.733-3.464-4.869Z" transform="translate(-217.371 -154.622)" fill="#482080"/>
    <path  d="M445.039,267.058l3.464,4.868,3.683-2.731-3.462-4.871Z" transform="translate(-222.198 -151.04)" fill="#482080"/>
    <path  d="M455.751,259.115l3.462,4.868,3.681-2.734-3.461-4.869Z" transform="translate(-227.028 -147.458)" fill="#482080"/>
    <path  d="M466.458,251.167l3.463,4.869L473.6,253.3l-3.461-4.868Z" transform="translate(-231.855 -143.876)" fill="#482080"/>
    <path  d="M477.164,243.222l3.462,4.866,3.684-2.731-3.466-4.868Z" transform="translate(-236.683 -140.293)" fill="#482080"/>
    <path  d="M487.869,235.275l3.466,4.868,3.681-2.734-3.463-4.868Z" transform="translate(-241.509 -136.709)" fill="#482080"/>
    <path  d="M498.577,227.327l3.466,4.867,3.681-2.732-3.464-4.869Z" transform="translate(-246.337 -133.126)" fill="#482080"/>
    <path  d="M509.289,219.381l3.461,4.87,3.685-2.734-3.463-4.867Z" transform="translate(-251.167 -129.544)" fill="#482080"/>
    <path  d="M519.993,211.435l3.463,4.867,3.683-2.733-3.464-4.868Z" transform="translate(-255.994 -125.961)" fill="#482080"/>
    <path  d="M530.7,203.488l3.462,4.87,3.685-2.734-3.462-4.868Z" transform="translate(-260.821 -122.378)" fill="#482080"/>
    <path  d="M541.41,195.542l3.461,4.868,3.681-2.732-3.462-4.87Z" transform="translate(-265.65 -118.795)" fill="#482080"/>
    <path  d="M555.578,192.465l3.684-2.733L555.8,184.86l-3.682,2.735Z" transform="translate(-270.478 -115.211)" fill="#482080"/>
    <path  d="M425.443,264.388l3.941,4.473,3.383-3.112-3.942-4.472Z" transform="translate(-213.362 -149.666)" fill="#482080"/>
    <path  d="M435.275,255.342l3.944,4.473,3.381-3.109-3.94-4.473Z" transform="translate(-217.796 -145.588)" fill="#482080"/>
    <path  d="M445.113,246.3l3.942,4.471,3.382-3.11-3.94-4.473Z" transform="translate(-222.231 -141.51)" fill="#482080"/>
    <path  d="M454.951,237.252l3.942,4.473,3.381-3.112-3.941-4.472Z" transform="translate(-226.667 -137.431)" fill="#482080"/>
    <path  d="M464.785,228.207l3.941,4.47,3.384-3.11-3.945-4.471Z" transform="translate(-231.101 -133.352)" fill="#482080"/>
    <path  d="M474.619,219.162l3.944,4.471,3.383-3.111L478,216.05Z" transform="translate(-235.535 -129.274)" fill="#482080"/>
    <path  d="M484.454,210.115l3.944,4.471,3.381-3.111L487.837,207Z" transform="translate(-239.97 -125.195)" fill="#482080"/>
    <path  d="M494.294,201.067l3.941,4.474,3.385-3.112-3.944-4.472Z" transform="translate(-244.406 -121.116)" fill="#482080"/>
    <path  d="M508.07,196.493l3.383-3.111-3.942-4.471-3.383,3.111Z" transform="translate(-248.84 -117.037)" fill="#482080"/>
    <path  d="M521.289,184.337l-3.944-4.472-3.383,3.11,3.941,4.474Z" transform="translate(-253.274 -112.959)" fill="#482080"/>
    <path  d="M531.123,175.292l-3.942-4.473-3.38,3.111,3.939,4.472Z" transform="translate(-257.71 -108.88)" fill="#482080"/>
    <path  d="M540.96,166.246l-3.942-4.475-3.381,3.114,3.939,4.473Z" transform="translate(-262.145 -104.8)" fill="#482080"/>
    <path  d="M550.795,157.2l-3.942-4.472-3.382,3.112,3.941,4.471Z" transform="translate(-266.579 -100.723)" fill="#482080"/>
    <path  d="M415.545,254.808l4.376,4.028,3.047-3.456-4.378-4.026Z" transform="translate(-208.9 -145.191)" fill="#482080"/>
    <path  d="M424.4,244.761l4.378,4.027,3.045-3.454-4.376-4.028Z" transform="translate(-212.892 -140.661)" fill="#482080"/>
    <path  d="M433.257,234.718l4.378,4.026,3.045-3.455-4.377-4.028Z" transform="translate(-216.886 -136.132)" fill="#482080"/>
    <path  d="M442.113,224.67l4.379,4.028,3.045-3.455-4.378-4.027Z" transform="translate(-220.879 -131.603)" fill="#482080"/>
    <path  d="M450.969,214.624l4.378,4.025,3.047-3.455-4.381-4.026Z" transform="translate(-224.872 -127.072)" fill="#482080"/>
    <path  d="M459.823,204.577,464.2,208.6l3.047-3.457-4.378-4.026Z" transform="translate(-228.864 -122.542)" fill="#482080"/>
    <path  d="M468.678,194.53l4.38,4.025L476.1,195.1l-4.378-4.026Z" transform="translate(-232.856 -118.013)" fill="#482080"/>
    <path  d="M477.538,184.482l4.378,4.028,3.048-3.456-4.38-4.026Z" transform="translate(-236.851 -113.483)" fill="#482080"/>
    <path  d="M493.816,175.007l-4.378-4.026-3.046,3.456,4.379,4.025Z" transform="translate(-240.843 -108.953)" fill="#482080"/>
    <path  d="M502.673,164.961l-4.378-4.028-3.047,3.455,4.378,4.028Z" transform="translate(-244.836 -104.422)" fill="#482080"/>
    <path  d="M404.748,246.364l4.765,3.538,2.678-3.763-4.768-3.537Z" transform="translate(-204.031 -141.246)" fill="#482080"/>
    <path  d="M412.527,235.428l4.768,3.537,2.675-3.759-4.765-3.539Z" transform="translate(-207.539 -136.315)" fill="#482080"/>
    <path  d="M420.31,224.494l4.766,3.537,2.673-3.762-4.763-3.538Z" transform="translate(-211.048 -131.384)" fill="#482080"/>
    <path  d="M428.09,213.556l4.766,3.537,2.675-3.761-4.766-3.537Z" transform="translate(-214.556 -126.454)" fill="#482080"/>
    <path  d="M435.867,202.619l4.766,3.537,2.678-3.761-4.77-3.537Z" transform="translate(-218.063 -121.522)" fill="#482080"/>
    <path  d="M443.644,191.682l4.769,3.537,2.674-3.763-4.765-3.536Z" transform="translate(-221.569 -116.59)" fill="#482080"/>
    <path  d="M451.424,180.744l4.768,3.537,2.675-3.762-4.768-3.537Z" transform="translate(-225.077 -111.659)" fill="#482080"/>
    <path  d="M459.207,169.806l4.764,3.539,2.678-3.762-4.768-3.536Z" transform="translate(-228.586 -106.728)" fill="#482080"/>
    <path  d="M466.983,158.869l4.767,3.536,2.676-3.761-4.768-3.537Z" transform="translate(-232.092 -101.796)" fill="#482080"/>
    <path  d="M393.173,239.153l5.1,3.01,2.278-4.028-5.1-3.008Z" transform="translate(-198.812 -137.875)" fill="#482080"/>
    <path  d="M402.07,223.418l-2.277,4.027,5.1,3.01,2.275-4.024Z" transform="translate(-201.797 -132.596)" fill="#482080"/>
    <path  d="M406.41,215.741l5.1,3.008,2.274-4.026-5.1-3.011Z" transform="translate(-204.781 -127.318)" fill="#482080"/>
    <path  d="M413.029,204.032l5.1,3.009,2.274-4.026-5.1-3.01Z" transform="translate(-207.765 -122.039)" fill="#482080"/>
    <path  d="M419.646,192.325l5.1,3.007,2.278-4.026L421.92,188.3Z" transform="translate(-210.748 -116.761)" fill="#482080"/>
    <path  d="M426.263,180.617l5.1,3.008,2.275-4.027-5.1-3.009Z" transform="translate(-213.732 -111.482)" fill="#482080"/>
    <path  d="M432.878,168.909l5.1,3.007,2.274-4.026-5.1-3.009Z" transform="translate(-216.715 -106.203)" fill="#482080"/>
    <path  d="M446.88,156.183l-5.1-3.007L439.5,157.2l5.1,3.01Z" transform="translate(-219.702 -100.925)" fill="#482080"/>
    <path  d="M453.494,144.474l-5.1-3.008-2.274,4.027,5.1,3.007Z" transform="translate(-222.684 -95.645)" fill="#482080"/>
    <path  d="M460.112,132.767l-5.1-3.01-2.276,4.027,5.1,3.01Z" transform="translate(-225.667 -90.366)" fill="#482080"/>
    <path  d="M466.729,121.062l-5.1-3.01-2.274,4.026,5.1,3.01Z" transform="translate(-228.652 -85.088)" fill="#482080"/>
    <path  d="M473.349,109.352l-5.1-3.012-2.274,4.028,5.1,3.011Z" transform="translate(-231.636 -79.807)" fill="#482080"/>
    <path  d="M479.965,97.645l-5.1-3.008-2.274,4.027,5.1,3.009Z" transform="translate(-234.62 -74.531)" fill="#482080"/>
    <path  d="M388.181,231.452l-5.383-2.446-1.852,4.247,5.382,2.449Z" transform="translate(-193.3 -135.116)" fill="#482080"/>
    <path  d="M386.332,220.9l5.382,2.448,1.851-4.245-5.38-2.45Z" transform="translate(-195.728 -129.546)" fill="#482080"/>
    <path  d="M391.715,208.554,397.1,211l1.851-4.247-5.38-2.449Z" transform="translate(-198.155 -123.978)" fill="#482080"/>
    <path  d="M397.1,196.2l5.384,2.448,1.849-4.246-5.38-2.449Z" transform="translate(-200.582 -118.41)" fill="#482080"/>
    <path  d="M402.482,183.855l5.382,2.446,1.852-4.247-5.383-2.446Z" transform="translate(-203.01 -112.843)" fill="#482080"/>
    <path  d="M413.246,173.951,415.1,169.7l-5.382-2.448-1.853,4.249Z" transform="translate(-205.436 -107.273)" fill="#482080"/>
    <path  d="M420.479,157.353l-5.382-2.448-1.852,4.248,5.385,2.447Z" transform="translate(-207.863 -101.705)" fill="#482080"/>
    <path  d="M425.868,145l-5.384-2.448-1.851,4.245,5.38,2.449Z" transform="translate(-210.292 -96.136)" fill="#482080"/>
    <path  d="M431.246,132.652l-5.382-2.448-1.851,4.248L429.4,136.9Z" transform="translate(-212.718 -90.568)" fill="#482080"/>
    <path  d="M368.2,228.726l5.6,1.862,1.407-4.424-5.6-1.859Z" transform="translate(-187.553 -132.996)" fill="#482080"/>
    <path  d="M379.3,213.309l-5.6-1.862-1.408,4.422,5.6,1.859Z" transform="translate(-189.398 -127.198)" fill="#482080"/>
    <path  d="M376.386,203.014l5.6,1.86,1.405-4.422-5.6-1.862Z" transform="translate(-191.244 -121.402)" fill="#482080"/>
    <path  d="M380.474,190.155l5.6,1.859,1.405-4.421-5.6-1.861Z" transform="translate(-193.087 -115.604)" fill="#482080"/>
    <path  d="M384.565,177.3l5.6,1.859,1.407-4.422-5.6-1.859Z" transform="translate(-194.931 -109.808)" fill="#482080"/>
    <path  d="M388.652,164.442l5.6,1.858,1.407-4.421-5.6-1.86Z" transform="translate(-196.774 -104.01)" fill="#482080"/>
    <path  d="M392.74,151.584l5.606,1.858,1.405-4.421-5.6-1.859Z" transform="translate(-198.617 -98.213)" fill="#482080"/>
    <path  d="M396.834,138.725l5.6,1.862,1.408-4.424-5.6-1.858Z" transform="translate(-200.463 -92.416)" fill="#482080"/>
    <path  d="M355.078,225.625l5.762,1.253.948-4.551-5.763-1.25Z" transform="translate(-181.636 -131.54)" fill="#482080"/>
    <path  d="M357.829,212.4l5.763,1.252.946-4.546-5.761-1.253Z" transform="translate(-182.876 -125.578)" fill="#482080"/>
    <path  d="M360.586,199.179l5.763,1.252.946-4.547-5.761-1.253Z" transform="translate(-184.119 -119.616)" fill="#482080"/>
    <path  d="M363.337,185.955l5.763,1.252.944-4.547-5.76-1.252Z" transform="translate(-185.36 -113.654)" fill="#482080"/>
    <path  d="M366.088,172.734l5.761,1.25.948-4.547-5.764-1.25Z" transform="translate(-186.6 -107.693)" fill="#482080"/>
    <path  d="M374.6,160.759l.946-4.547-5.763-1.251-.947,4.549Z" transform="translate(-187.84 -101.73)" fill="#482080"/>
    <path  d="M378.3,142.989l-5.763-1.251-.946,4.549,5.763,1.249Z" transform="translate(-189.081 -95.768)" fill="#482080"/>
    <path  d="M381.053,129.764l-5.764-1.25-.946,4.546,5.762,1.253Z" transform="translate(-190.322 -89.805)" fill="#482080"/>
    <path  d="M383.8,116.542l-5.762-1.252-.946,4.548,5.762,1.249Z" transform="translate(-191.563 -83.843)" fill="#482080"/>
    <path  d="M386.555,103.317l-5.764-1.252-.946,4.549,5.762,1.253Z" transform="translate(-192.803 -77.88)" fill="#482080"/>
    <path  d="M389.306,90.1l-5.763-1.252-.943,4.547,5.76,1.253Z" transform="translate(-194.045 -71.919)" fill="#482080"/>
    <path  d="M392.06,76.872,386.3,75.617l-.945,4.549,5.761,1.253Z" transform="translate(-195.286 -65.955)" fill="#482080"/>
    <path  d="M394.811,63.647,389.049,62.4l-.946,4.548,5.762,1.252Z" transform="translate(-196.527 -59.994)" fill="#482080"/>
    <path  d="M348.056,219.988l-5.861-.627-.476,4.623,5.86.631Z" transform="translate(-175.613 -130.766)" fill="#482080"/>
    <path  d="M349.439,206.543l-5.858-.632-.478,4.625,5.859.63Z" transform="translate(-176.237 -124.702)" fill="#482080"/>
    <path  d="M350.824,193.1l-5.859-.631-.476,4.626,5.861.629Z" transform="translate(-176.862 -118.641)" fill="#482080"/>
    <path  d="M352.206,179.654l-5.858-.631-.477,4.625,5.861.628Z" transform="translate(-177.485 -112.579)" fill="#482080"/>
    <path  d="M353.592,166.209l-5.862-.628-.474,4.624,5.857.628Z" transform="translate(-178.109 -106.518)" fill="#482080"/>
    <path  d="M354.974,152.764l-5.859-.628-.474,4.624,5.859.628Z" transform="translate(-178.733 -100.456)" fill="#482080"/>
    <path  d="M356.356,139.32l-5.859-.628-.476,4.624,5.862.627Z" transform="translate(-179.356 -94.394)" fill="#482080"/>
    <path  d="M357.742,125.873l-5.86-.627-.475,4.622,5.857.632Z" transform="translate(-179.981 -88.332)" fill="#482080"/>
    <path  d="M359.124,112.429l-5.859-.63-.477,4.625,5.859.628Z" transform="translate(-180.604 -82.269)" fill="#482080"/>
    <path  d="M360.508,98.984l-5.86-.629-.477,4.624,5.859.631Z" transform="translate(-181.227 -76.207)" fill="#482080"/>
    <path  d="M361.89,85.542l-5.859-.63-.474,4.623,5.859.63Z" transform="translate(-181.852 -70.146)" fill="#482080"/>
    <path d="M363.277,72.1l-5.861-.631-.474,4.626,5.858.631Z" transform="translate(-182.477 -64.082)" fill="#482080"/>
    <path  d="M364.659,58.65l-5.859-.628-.474,4.623,5.856.631Z" transform="translate(-183.101 -58.021)" fill="#482080"/>
  </g>
</svg>
